<?xml version="1.0" standalone="no"?>
<!DOCTYPE svg PUBLIC "-//W3C//DTD SVG 20010904//EN"
 "http://www.w3.org/TR/2001/REC-SVG-20010904/DTD/svg10.dtd">
<svg version="1.0" xmlns="http://www.w3.org/2000/svg"
 width="256.000000pt" height="256.000000pt" viewBox="0 0 256.000000 256.000000"
 preserveAspectRatio="xMidYMid meet">
<metadata>
Created by potrace 1.11, written by Peter Selinger 2001-2013
</metadata>
<g transform="translate(0.000000,256.000000) scale(0.100000,-0.100000)"
fill="#000000" stroke="none">
<path d="M0 1280 l0 -1280 988 1 c674 1 975 4 950 11 -39 10 -88 58 -88 84 0
48 51 74 143 74 85 0 137 50 137 130 0 73 -43 127 -139 175 l-53 27 -32 -30
c-175 -164 -742 -355 -957 -321 -59 9 -99 42 -99 81 0 11 20 41 45 66 49 49
51 52 33 52 -7 0 -41 13 -76 30 -61 29 -65 29 -94 14 -47 -24 -135 -53 -211
-69 -173 -37 -299 1 -272 82 11 30 62 66 238 167 l104 60 -14 45 c-8 25 -17
97 -19 160 -4 99 -7 118 -25 137 -64 68 32 243 171 314 20 10 51 35 68 55 26
29 32 44 32 83 0 46 -16 122 -26 122 -3 0 -22 -9 -44 -20 -44 -22 -60 -25 -60
-10 0 6 20 20 45 32 47 23 63 55 23 45 -13 -3 -44 -9 -70 -12 -71 -11 -61 12
12 27 33 6 60 15 60 18 0 4 -9 33 -21 66 -14 40 -23 102 -29 189 -5 72 -15
173 -23 225 -25 158 -28 205 -18 233 18 48 77 30 163 -51 48 -45 50 -46 81
-33 18 7 81 29 142 48 60 19 110 35 111 36 1 1 5 25 8 52 10 76 17 107 32 138
l15 27 -616 0 -615 0 0 -1280z"/>
<path d="M1350 2493 c111 -115 356 -456 507 -708 210 -351 275 -531 276 -770
1 -112 -24 -261 -57 -339 l-15 -36 47 -31 c138 -93 212 -204 212 -318 0 -86
-16 -134 -63 -187 -45 -51 -74 -68 -149 -88 -50 -14 -37 -15 200 -15 l252 -1
0 1280 0 1280 -638 0 -638 0 66 -67z"/>
<path d="M1241 2526 c-13 -16 -31 -105 -31 -156 0 -21 -6 -42 -12 -47 -7 -6
-56 -22 -108 -37 -52 -15 -119 -38 -149 -52 -53 -24 -54 -24 -67 -5 -22 30
-134 111 -155 111 -25 0 -25 -45 1 -210 11 -69 20 -159 21 -200 1 -94 8 -118
40 -142 24 -18 29 -18 62 -5 21 9 42 28 52 46 8 17 20 31 25 31 29 0 -11 -75
-52 -96 -20 -10 -45 -14 -70 -11 -21 3 -38 1 -38 -5 0 -5 15 -46 34 -91 56
-137 69 -185 64 -239 -6 -63 -29 -92 -109 -145 -114 -76 -166 -137 -183 -219
-13 -60 58 -108 107 -71 9 6 32 44 51 82 35 74 68 111 86 100 7 -4 2 -17 -14
-36 -14 -17 -35 -51 -46 -77 -28 -62 -66 -100 -107 -108 l-33 -6 0 -87 c0
-230 112 -400 311 -470 l52 -19 56 36 c31 19 82 55 114 80 39 29 62 41 68 35
12 -12 -29 -46 -161 -133 -107 -70 -170 -126 -170 -150 0 -49 84 -69 212 -50
301 44 694 201 807 324 14 14 30 26 37 26 20 0 127 -60 158 -88 93 -87 84
-237 -17 -283 -24 -10 -65 -19 -94 -19 -102 0 -133 -37 -70 -84 40 -30 172
-30 237 0 95 44 139 117 140 229 0 118 -54 203 -188 294 -34 22 -63 45 -67 51
-3 5 1 23 9 39 21 40 66 267 66 332 0 75 -26 241 -50 319 -23 76 -130 291
-220 440 -198 330 -494 730 -571 771 -11 6 -21 4 -28 -5z m109 -582 c0 -51
-44 -94 -98 -94 -42 0 -92 30 -92 56 0 20 14 17 35 -6 24 -26 86 -27 109 -1 9
10 19 32 21 47 2 16 4 30 4 32 1 1 6 2 11 2 6 0 10 -16 10 -36z m-264 -171
c20 -25 25 -26 43 -15 27 16 31 15 31 -3 0 -20 -36 -38 -61 -30 -13 4 -27 0
-39 -10 -20 -18 -51 -17 -57 2 -2 6 6 13 19 15 18 2 24 10 26 36 4 39 10 40
38 5z m506 2 c2 -12 -42 -22 -104 -24 -49 -1 -66 15 -25 24 63 14 128 14 129
0z m36 -80 c-4 -14 -162 -9 -166 5 -3 7 23 10 82 8 51 -2 85 -7 84 -13z m-328
-434 c0 -5 -13 -14 -29 -19 -41 -14 -118 -88 -142 -134 -26 -50 -25 -108 3
-143 19 -24 26 -27 66 -22 57 6 70 21 82 91 11 71 36 114 78 139 49 29 51 12
5 -30 -38 -35 -63 -89 -63 -135 0 -73 -106 -125 -168 -82 -75 53 -65 165 24
264 52 57 144 103 144 71z"/>
<path d="M525 549 c-190 -110 -220 -132 -220 -159 0 -40 36 -52 145 -47 69 4
121 13 190 36 135 44 133 42 83 93 -22 24 -54 64 -70 89 l-29 46 -99 -58z"/>
</g>
</svg>
